HIERARCHY
ROOT hip
{
	OFFSET 0.000000 0.000000 0.000000 
	CHANNELS 6 Xposition Yposition Zposition Xrotation Zrotation Yrotation
	JOINT abdomen
	{
		OFFSET 0.000000 3.402643 0.000000 
		CHANNELS 3 Xrotation Zrotation Yrotation
		JOINT chest
		{
			OFFSET 0.000000 8.438565 -0.680529 
			CHANNELS 3 Xrotation Zrotation Yrotation
			JOINT neck
			{
				OFFSET 0.000000 10.207942 -0.272212 
				CHANNELS 3 Xrotation Zrotation Yrotation
				JOINT head
				{
					OFFSET 0.000000 3.130431 0.000000 
					CHANNELS 3 Xrotation Zrotation Yrotation
					End Site
					{
						OFFSET 0.000000 3.130435 0.000000 
					}
				}
			}
			JOINT lCollar
			{
				OFFSET 3.470700 6.669187 -0.816635 
				CHANNELS 3 Yrotation Zrotation Xrotation
				JOINT lShldr
				{
					OFFSET 3.198488 0.000000 0.000000 
					CHANNELS 3 Zrotation Yrotation Xrotation
					JOINT lForeArm
					{
						OFFSET 10.139888 0.000000 0.000000 
						CHANNELS 3 Yrotation Zrotation Xrotation
						JOINT lHand
						{
							OFFSET 8.370511 0.000000 0.000000 
							CHANNELS 3 Zrotation Yrotation Xrotation
							End Site
							{
								OFFSET 4.083176 0.000000 0.000000 
							}
						}
					}
				}
			}
			JOINT rCollar
			{
				OFFSET -3.470700 6.669187 -0.816635 
				CHANNELS 3 Yrotation Zrotation Xrotation
				JOINT rShldr
				{
					OFFSET -3.198488 0.000000 0.000000 
					CHANNELS 3 Zrotation Yrotation Xrotation
					JOINT rForeArm
					{
						OFFSET -10.139888 0.000000 0.000000 
						CHANNELS 3 Yrotation Zrotation Xrotation
						JOINT rHand
						{
							OFFSET -8.370511 0.000000 0.000000 
							CHANNELS 3 Zrotation Yrotation Xrotation
							End Site
							{
								OFFSET -4.083176 0.000000 0.000000 
							}
						}
					}
				}
			}
		}
	}
	JOINT lThigh
	{
		OFFSET 5.308129 -1.633274 1.361059 
		CHANNELS 3 Xrotation Zrotation Yrotation
		JOINT lShin
		{
			OFFSET -2.041588 -20.007561 0.000000 
			CHANNELS 3 Xrotation Zrotation Yrotation
			JOINT lFoot
			{
				OFFSET 0.000000 -19.190928 -1.224953 
				CHANNELS 3 Xrotation Yrotation Zrotation
				End Site
				{
					OFFSET 0.000000 -2.449906 4.627600 
				}
			}
		}
	}
	JOINT rThigh
	{
		OFFSET -5.308129 -1.633274 1.361059 
		CHANNELS 3 Xrotation Zrotation Yrotation
		JOINT rShin
		{
			OFFSET 2.041588 -20.007561 0.000000 
			CHANNELS 3 Xrotation Zrotation Yrotation
			JOINT rFoot
			{
				OFFSET 0.000000 -19.190928 -1.224953 
				CHANNELS 3 Xrotation Yrotation Zrotation
				End Site
				{
					OFFSET 0.000000 -2.449906 4.627600 
				}
			}
		}
	}
}
MOTION
Frames: 16
Frame Time: 0.033333
28.104296 43.446320 37.558525 -4.581836 -5.519523 -53.054626 -25.449215 0.000000 0.000000 39.152306 3.273479 -0.761026 5.321861 -12.964120 26.758360 -15.996433 4.791806 22.592518 -5.931250 -15.212621 12.436381 -53.967598 -36.552456 23.803823 -68.601997 4.621423 -22.555006 14.707001 -30.551741 -4.627308 16.679668 7.782506 21.888838 65.311951 58.439987 53.219166 29.044441 -5.779532 -37.444481 -29.005365 47.447495 -14.829071 -23.286020 18.608393 6.809132 28.092894 1.942160 7.711244 5.715148 -0.638179 -13.758373 -7.811446 -17.357992 -11.538064 47.987247 4.003689 -16.729351 -24.160318 -3.930694 14.147764 
28.169146 43.489853 37.593754 -4.571950 -5.509864 -53.222359 -25.449215 0.000000 0.000000 39.142990 3.272951 -0.737593 5.511941 -13.103076 26.761570 -16.331755 4.951703 22.510330 -5.967262 -15.159502 12.399813 -53.995399 -36.651741 23.827198 -68.488411 4.654622 -22.444397 14.840640 -30.557505 -4.724209 16.716393 7.769612 21.857960 65.179893 58.440006 53.074059 29.085558 -5.770221 -37.558380 -28.747778 47.427586 -14.691368 -23.026716 18.495508 6.559364 27.672529 1.879224 7.618840 5.849412 -0.568070 -13.882928 -8.005718 -17.257109 -11.510683 47.952946 4.098901 -16.962854 -24.033855 -3.879259 14.031288 
27.327719 42.945095 37.041348 -4.504935 -5.724566 -50.653545 -25.449215 0.000000 0.000000 39.152634 3.248302 -0.708122 5.852558 -13.217559 26.889086 -16.539856 5.112936 22.554779 -5.965732 -15.064301 12.431553 -54.165073 -36.799824 23.876915 -68.423866 4.672788 -22.356422 15.050047 -30.486078 -4.767117 16.669165 7.675247 21.850433 65.220757 58.474800 53.085899 29.147505 -5.858180 -37.654716 -28.351643 47.238800 -14.425484 -26.572466 19.775604 6.733895 32.604973 1.823726 9.218646 4.734076 -0.212003 -12.702692 -5.419850 -18.518661 -12.989940 48.184021 2.858138 -14.128493 -25.795265 -4.430224 15.541872 
26.379049 42.280319 36.650982 -4.271636 -6.018515 -47.911095 -25.449215 0.000000 0.000000 39.192570 3.286628 -0.723476 6.092809 -13.559682 26.951290 -16.722233 5.505747 22.338198 -5.898920 -15.109439 12.456075 -54.245270 -36.789284 23.833841 -68.558678 4.694196 -22.389414 14.971203 -30.324493 -4.645955 16.488388 7.570122 21.807755 65.509071 58.532146 53.490311 29.208218 -5.932592 -37.700947 -28.088068 46.954620 -14.196896 -30.999405 21.410494 7.136701 38.944519 1.721614 11.515119 3.103919 0.094283 -11.252908 -1.943966 -19.907429 -14.608394 47.333633 0.980097 -10.733977 -27.504129 -5.279727 17.905222 
25.616714 41.714405 36.767338 -3.802902 -6.382517 -45.827087 -25.449215 0.000000 0.000000 39.251202 3.321795 -0.776864 6.141067 -13.705037 27.015795 -16.630268 5.893011 22.257179 -5.839933 -15.268939 12.547773 -54.217304 -36.716839 23.683990 -68.799683 4.740175 -22.402794 14.690839 -30.098209 -4.455885 16.256239 7.511043 21.727085 65.890030 58.525997 54.023235 29.271622 -5.957671 -37.579216 -28.145962 46.723080 -14.156114 -35.048893 23.027411 7.840871 45.379604 1.559230 14.476513 0.966105 0.318207 -9.968650 2.243447 -20.911043 -15.925444 44.455250 -0.884017 -7.840799 -28.272137 -6.227661 20.682589 
24.994574 41.275425 37.477398 -3.059190 -6.884801 -43.969177 -25.449215 0.000000 0.000000 39.396164 3.271226 -0.784748 6.048975 -13.371079 27.272682 -16.140509 5.968379 22.746449 -5.781007 -15.326039 12.701346 -54.350651 -36.740261 23.637491 -68.913490 4.814982 -22.329329 14.406662 -29.967670 -4.327229 16.020220 7.545874 21.558674 66.116241 58.379322 54.355965 29.427908 -5.985308 -37.207321 -28.441149 46.520683 -14.259307 -38.626701 24.526026 8.889487 51.906754 1.286925 17.935877 -1.953714 0.608756 -8.985878 7.858413 -21.285866 -17.259279 38.975780 -2.114211 -5.861742 -27.698627 -6.932497 23.559731 
24.473289 40.969479 38.892143 -2.088491 -7.563391 -41.737816 -25.449215 0.000000 0.000000 39.638985 3.176839 -0.725046 6.030814 -13.096506 27.786762 -15.637120 5.792235 23.488205 -5.621244 -15.119021 12.653410 -54.842529 -36.812790 23.932512 -68.702705 4.820252 -22.203802 14.376037 -30.123064 -4.365696 15.733465 7.649116 21.316708 66.197166 58.122463 54.627132 29.698833 -6.101882 -36.681709 -28.554636 46.217911 -14.144621 -41.554691 25.540020 10.017653 58.684303 0.934915 21.976112 -5.968331 0.989414 -8.695279 15.295809 -20.678585 -18.561039 31.521446 -2.523809 -5.211986 -25.409908 -7.081408 26.128601 
23.939150 40.687946 41.136799 -1.284041 -8.620914 -37.884380 -25.449215 0.000000 0.000000 39.734211 3.307679 -0.562009 6.193138 -13.837828 28.240353 -15.603137 6.150584 23.510380 -5.555536 -15.694473 12.740064 -54.433823 -36.509354 23.511438 -68.799080 4.567291 -20.854265 15.924943 -29.894318 -5.330861 15.594126 7.450385 21.256672 67.086151 58.158390 55.658710 29.161489 -6.185333 -36.634125 -28.452606 46.219036 -13.977183 -43.374313 25.435511 10.580723 65.684433 0.232189 26.213921 -11.504248 1.578327 -9.017900 25.180040 -18.513512 -19.121609 22.476604 -2.029294 -7.564950 -20.893349 -6.446073 28.958881 
23.390242 41.082176 42.920387 -1.621185 -8.922266 -34.035625 -25.449215 0.000000 0.000000 39.664803 3.319979 -0.629962 6.066768 -14.290817 28.333521 -15.718588 6.612981 23.138941 -5.376865 -15.869311 12.517453 -53.945415 -36.382450 23.768002 -68.854927 4.066252 -21.044209 17.386221 -30.037973 -5.817532 15.589051 7.406457 21.390398 67.430359 58.078129 55.817268 28.967993 -6.273707 -36.767658 -27.863588 46.608028 -13.639808 -40.598560 22.670046 10.543763 66.186928 0.073613 26.928638 -14.808824 1.956117 -9.520598 30.519297 -15.750027 -17.051386 18.304117 -1.120731 -13.479105 -14.563292 -4.784685 30.152109 
22.583967 41.681450 44.534321 -2.480065 -8.751689 -28.022282 -25.449215 0.000000 0.000000 39.581768 3.274069 -0.795650 6.016276 -14.159842 28.306902 -15.702011 6.796989 23.066347 -5.330511 -15.673891 12.521330 -53.999332 -36.392384 24.103619 -68.711136 4.098102 -22.115408 16.856918 -30.430309 -5.349315 15.746400 7.537088 21.671721 67.196404 58.108410 55.321892 28.880499 -6.261662 -36.889812 -27.581852 46.857559 -13.543947 -36.791096 19.165514 9.780872 64.226082 -0.015003 25.133682 -17.191557 2.124380 -9.319221 32.294445 -12.402517 -12.789971 19.397680 -0.670253 -19.272884 -6.988911 -2.577483 29.907732 
21.518370 42.174133 45.941986 -3.857712 -8.184792 -19.303534 -25.449215 0.000000 0.000000 39.659439 3.276796 -0.825495 6.101416 -13.760671 28.256382 -15.627458 6.450042 23.308870 -5.443762 -15.744727 12.849805 -54.029160 -36.494160 23.921581 -68.653267 4.425776 -22.670078 15.445235 -30.582994 -4.655128 15.850223 7.648236 21.892584 66.767159 58.052067 54.750843 29.170355 -6.302165 -36.984097 -27.546305 46.728813 -13.466730 -33.542053 15.505945 7.923749 62.032379 0.114981 21.615843 -18.962725 2.112580 -8.424619 30.854280 -8.349161 -8.708344 26.126513 0.083305 -21.974087 -0.465935 -0.696205 29.031244 
20.320959 42.523201 47.134434 -5.395211 -7.282398 -9.383048 -25.449215 0.000000 0.000000 39.857880 3.326721 -0.759651 6.199717 -13.508183 28.197367 -15.785623 5.877113 23.539068 -5.534201 -16.091324 13.152425 -53.783867 -36.576641 23.506983 -68.767235 4.569810 -22.325882 14.861062 -30.416775 -4.519348 15.769342 7.653862 21.900698 66.660645 57.909267 54.651283 29.608887 -6.393284 -36.987007 -27.647402 46.431919 -13.392929 -31.001280 11.951099 5.064704 59.932240 0.672738 16.849384 -20.054482 1.952107 -7.166037 27.007292 -3.886517 -7.169127 35.150894 1.064606 -23.164684 3.257180 0.289389 27.421806 
19.137789 42.878372 48.300842 -6.795734 -6.041558 1.371974 -25.449215 0.000000 0.000000 39.956451 3.367137 -0.781343 6.170918 -13.557268 28.197210 -16.253666 5.667263 23.570694 -5.439054 -16.128819 13.054008 -53.666279 -36.576317 23.645004 -68.820618 4.438756 -21.982893 15.461624 -30.361366 -4.891247 15.602781 7.650618 21.767662 67.036995 57.926834 55.051456 29.490950 -6.352288 -36.847267 -27.997484 46.406967 -13.663177 -28.681040 8.925912 1.838977 57.504906 1.379323 11.403772 -20.435179 1.656372 -5.698295 21.829540 -0.401249 -8.904995 44.183525 2.423245 -25.046604 5.662550 0.840789 24.879414 
18.077522 43.249001 49.614120 -7.965977 -4.661812 12.252599 -25.449215 0.000000 0.000000 39.960506 3.453673 -0.721290 6.054905 -13.539175 28.295872 -16.123972 5.524304 23.712315 -5.377887 -16.417328 13.205487 -53.505409 -36.709782 23.564383 -68.607399 4.384147 -21.987455 15.447074 -30.409567 -4.912354 15.456484 7.564911 21.766975 67.484978 57.959618 55.439320 29.171906 -6.253808 -36.962189 -28.189379 46.598446 -13.861403 -26.158779 6.551580 -1.239220 54.806252 2.406549 5.469462 -20.602474 1.371264 -4.277975 15.155194 0.917208 -12.579821 53.501335 3.291434 -26.309855 6.635463 0.912186 22.121874 
14.993432 43.644043 51.920086 -8.610730 -2.336673 31.994061 -25.449215 0.000000 0.000000 40.089130 3.516270 -0.746112 6.064073 -13.246037 28.228809 -16.028158 4.974976 23.881269 -5.345876 -16.531425 13.274364 -53.356014 -36.752850 23.643356 -68.528351 4.434618 -21.966547 15.634795 -30.404417 -5.024574 15.386472 7.647957 21.782139 67.534714 57.929211 55.480747 29.110584 -6.277763 -37.006649 -28.032398 46.704494 -13.809545 -26.425135 7.206713 -2.397043 51.885403 3.033316 1.011190 -18.655939 1.113768 -3.965818 6.984587 -2.019974 -16.552374 60.577888 2.640895 -23.097116 3.035308 0.051862 19.478968 
12.140508 43.874317 55.894104 -8.417995 0.144906 52.478554 -25.449215 0.000000 0.000000 40.171520 3.682021 -0.811196 5.962001 -13.631547 28.077265 -15.988952 4.975478 23.503798 -5.369347 -16.709023 13.232103 -53.102192 -36.594990 23.571632 -68.552498 4.450999 -21.925701 15.780730 -30.331131 -5.134094 15.517355 7.628588 21.895002 67.534866 58.012711 55.430058 28.916693 -6.307759 -37.009300 -28.125435 46.789120 -13.922443 -28.083670 9.393643 -2.013657 50.055923 2.857501 -0.002121 -15.921980 0.916772 -4.548944 0.281896 -7.008573 -17.109367 65.144997 1.031815 -17.742321 -0.502702 -0.614420 18.997177 
